<?xml version="1.0" encoding="UTF-8"?>
<svg enable-background="new 0 0 1065.1 295.1" version="1.1" viewBox="0 0 1065.1 295.1" xml:space="preserve" xmlns="http://www.w3.org/2000/svg">
<metadata>
<x:xmpmeta x:xmptk="Adobe XMP Core 5.6-c067 79.157747, 2015/03/30-23:40:42        " xmlns:x="adobe:ns:meta/">
   <rdf:RDF xmlns:rdf="http://www.w3.org/1999/02/22-rdf-syntax-ns#">
      <rdf:Description rdf:about=""/>
   </rdf:RDF>
</x:xmpmeta>
</metadata>
		<path d="m81.6 185.3s-14.5-12-38.7-11.8c-13.2 0.1-45.5 22.8-42.7 52.3 3.2 34.3 31.7 33.5 36 33.5 13.4 1.1 25.2-10.1 30.6-17.9 6.6-9.5 15.5-26.2 18.4-24.5 14.8 8.3 35.9 57.1 36.4 57.6 1 0.8 3.6 4.6 9.3 3.3s0-12.1 0-12.1c-16.4-25.1-28.6-67-49.3-80.4zm-6.3 15c0 10-6.8 23.9-12.7 32.4-7.4 10.6-16.7 20.1-27.6 20.1s-13.9-24.6-13.7-30.1c0.4-11.4 3.6-32.1 25-41.3 12.4 0 29-0.7 29 18.9z"/>
		<path d="m475.7 277.8c-22.6 1.7-54.3 23.4-59.8-12.3-1.3-54 85.2-217.1 18.1-215.9-104.4 18.2-99.6 174-106.2 122.4-2.3-17.8-8.8-52.1-33.4-40.4-42.9 20.3-59.8 56.6-59.8 56.6s-3.1-37.3-14.3-32c-6.8 3.2 3.5 35 4.1 44.7 0.3 5.3-1.9 8.2-4.1 9.9-2.1 1.6-2.8 4.3-2.1 6.8 3.4 11.7 12.4 40.4 21.6 48.6 11.6 10.3 13.5-2.2 13.5-2.2-20.8-63.9-10.5-66.1-9.7-69.5 2.7-12.7 44.7-57.4 54.8-50.7 12.4 8.3 22.3 74.5 21.3 87.3-0.2 2 0.6 4 2.1 5.4 4.4 4.1 9.5 1.1 12.6-1.4 1.7-1.4 2.5-3.5 2.3-5.7-8.3-108.3 109.2-218.9 91.3-135.4-10 53.1-35.2 138.3-35 154.6 0.1 14.7 8.7 39.2 36.6 45.2s43.4-9.2 46.7-9.5c3.2-0.3 2.8-6.8-0.6-6.5z"/>
		<path d="m917.7 278.2c8.5-1.6 20.5-0.6 17-5.9s-13.8-29.3-18.1-37.3c-3.4-6.3-15.2-19.4-27.1-27.4-25.8-17.2-74.6 9.4-133.6-7.9-0.5-0.1-0.5-0.9-0.3-1.4 3.7-7.6 31.6-57.1 38.7-116.8 0.1-0.5 0.5-0.9 1-1 16.9-1 175.3-15 263.3-6.6 0.2 0 0.4 0 0.6-0.1 2.2-1.2 14.7-8.6-5.2-13.5-21.3-5.2-213.5-3.6-255.4 2-0.8 0.1-1.4-0.6-1.2-1.3 2-9 11-54.1-10.1-55.7-23.2-1.8-51.7 28.3-64.1 62.8-0.1 0.4-0.5 0.7-0.9 0.7l-109.2 15.1c-0.7 0.1-1.4-0.6-1.2-1.3 1.4-7.9 8.2-45.2 12.5-66.8 4.8-24.2-18.1-14.2-19.8-10.6-1.8 3.6-11.9 56-24.7 82.9 0 0 1.8 9.2-104.1 22-0.2 0-0.4 0.1-0.6 0.3-1.5 1.3-8 7.9 4.7 13.9 14.1 6.6 85.8-23.9 94.3-16.4 5.6 5-20.7 97.9-27.3 118.6-0.6 1.9-3 2.5-4.4 1-5.5-5.6-19.6-18.5-20.9-25.1-3.3-16.1-10.7-40.3-34.1-39.8-27.3 0.5-42.5 27.5-44.5 45.1-3.9 34 9.2 43.5 32.1 43.5 20.1 0 35.9-27.2 39.4-33.8 0.4-0.7 1.3-0.8 1.8-0.2 6.1 6.7 25.8 31.8 36.4 25.7 7.6-4.3 27.6-93.1 34.9-124.8 0.3-1.3 2.2-1.1 2.2 0.3-1 39.2-1 164 38.5 168.6h0.4c1.5-0.4 10.2-3.2 4.2-9.6-6.6-7.1-12.2-18.3-17.4-30.7-5.1-12.1-13.7-118.8-7-143.6 0.1-0.4 0.5-0.7 0.9-0.8 8-1.3 82.5-13.6 105.9-15.2 0.7-0.1 1.5 0.6 1.2 1.3-6.1 11.2-13.6 88.5 21.4 110.9 0.5 0.3 0.3 0.9 0.4 1.4 0.6 9.2-21.2 46.2-43.5 43.3-20.5-2.7-28.3-18.2-28.3-36.3 0-18 18.6-41.3 39.9-15.7 0.1 0.2 0.3 0.3 0.5 0.4 1.8 0.6 10.9 2.9 8.9-5.4-2.2-9.3-23.1-16-31.9-15.9-13.2 0.1-38.5 5.5-36.2 42.2 2.3 36.5 32 37 44.3 37 12.2 0 28.7 0.2 55.2-39.4 0.3-0.5 1-0.5 1.5-0.3 57.3 21.8 99.2-2.7 122.4 5.5 20.2 10.3 36.3 64 46.6 62.1zm-412.8-67.7c-3.1 6.6-5.3 27.4-26.4 31-13.8 2.3-23.1-20.1-21.3-30.9 1.9-11.8 4.9-37.1 33.1-37.1 20.6 0.1 17.7 30.4 14.6 37zm274.4-129.4c0.7 0 1.3 0.6 1.2 1.3-2.3 12-21.4 91.6-32.8 105.7-15.6 19.4-22.4-82.2-12.3-104.6 0.1-0.3-3.4 0.6-3.1 0.6m50.8-20.2l-43 3.7c-0.9 0.1 2.2 0.6 2.6-0.2 14.3-27.4 30.1-44.2 41.1-48.6 11.1-4.4 1.8 38.5 0.2 44.2-0.1 0.5-0.5 0.8-0.9 0.9z"/>
</svg>
